<svg xmlns="http://www.w3.org/2000/svg" xmlns:xlink="http://www.w3.org/1999/xlink" width="92" height="103" viewBox="0 0 92 103"><defs><path id="sex6a" d="M159.84 9180.41c3.13 0 5.79 1.12 7.99 3.34 2.2 2.23 3.3 4.91 3.3 8.06 0 1.2-.42 2.98-1.25 5.33a94 94 0 0 1-2.71 6.82c-.98 2.2-2.12 4.61-3.41 7.24a196.99 196.99 0 0 1-3.92 7.61c0 .1-.94-1.68-2.82-5.33-1.88-3.64-3.76-7.7-5.64-12.14-1.88-4.45-2.82-7.63-2.82-9.53 0-3.15 1.1-5.83 3.3-8.06a10.81 10.81 0 0 1 7.98-3.34zm2.42 13.8a3.47 3.47 0 0 0 1.02-2.51c0-.97-.34-1.8-1.02-2.47a3.37 3.37 0 0 0-2.46-1.02c-.95 0-1.77.34-2.45 1.02a3.34 3.34 0 0 0-1.02 2.47c0 .97.34 1.81 1.02 2.51.68.7 1.5 1.05 2.45 1.05.96 0 1.77-.35 2.46-1.05z"/><mask id="sex6c" width="2" height="2" x="-1" y="-1"><path fill="#fff" d="M148 9180h24v39h-24z"/><use xlink:href="#sex6a"/></mask><filter id="sex6b" width="130" height="145" x="95" y="9127" filterUnits="userSpaceOnUse"><feOffset in="SourceGraphic" result="FeOffset1023Out"/><feGaussianBlur in="FeOffset1023Out" result="FeGaussianBlur1024Out" stdDeviation="17.2 17.2"/></filter></defs><g><g transform="translate(-114 -9146)"><g filter="url(#sex6b)"><use fill="none" stroke-opacity=".47" stroke-width="0" mask="url(&quot;#sex6c&quot;)" xlink:href="#sex6a"/><use fill="#f51e1e" fill-opacity=".47" xlink:href="#sex6a"/></g><use fill="#f92626" xlink:href="#sex6a"/></g></g></svg>