<svg xmlns="http://www.w3.org/2000/svg" xmlns:xlink="http://www.w3.org/1999/xlink" width="107" height="128" viewBox="0 0 107 128"><defs><path id="kl6xa" d="M926.5 12845c5.13 0 9.49 1.83 13.1 5.48 3.6 3.64 5.4 8.05 5.4 13.22 0 1.97-.68 4.88-2.04 8.74a154.06 154.06 0 0 1-4.45 11.2c-1.6 3.6-3.46 7.56-5.58 11.87a321.38 321.38 0 0 1-6.43 12.48c0 .17-1.54-2.75-4.63-8.73a290.6 290.6 0 0 1-9.24-19.93c-3.09-7.3-4.63-12.51-4.63-15.63 0-5.17 1.8-9.58 5.4-13.22a17.72 17.72 0 0 1 13.1-5.48zm3.96 22.64a5.7 5.7 0 0 0 1.69-4.12c0-1.6-.56-2.96-1.69-4.06a5.53 5.53 0 0 0-4.02-1.66c-1.56 0-2.9.55-4.02 1.66a5.49 5.49 0 0 0-1.69 4.06c0 1.6.56 2.97 1.69 4.12a5.43 5.43 0 0 0 4.02 1.72c1.56 0 2.9-.57 4.02-1.72z"/><mask id="kl6xc" width="2" height="2" x="-1" y="-1"><path fill="#fff" d="M908 12845h37v63h-37z"/><use xlink:href="#kl6xa"/></mask><filter id="kl6xb" width="143" height="169" x="855" y="12792" filterUnits="userSpaceOnUse"><feOffset in="SourceGraphic" result="FeOffset1023Out"/><feGaussianBlur in="FeOffset1023Out" result="FeGaussianBlur1024Out" stdDeviation="17.2 17.2"/></filter></defs><g><g transform="translate(-873 -12810)"><g filter="url(#kl6xb)"><use fill="none" stroke-opacity=".47" stroke-width="0" mask="url(&quot;#kl6xc&quot;)" xlink:href="#kl6xa"/><use fill="#f51e1e" fill-opacity=".47" xlink:href="#kl6xa"/></g><use fill="#f92626" xlink:href="#kl6xa"/></g></g></svg>